<svg xmlns="http://www.w3.org/2000/svg" version="1.1" xmlns:xlink="http://www.w3.org/1999/xlink" xmlns:svgjs="http://svgjs.dev/svgjs" width="1920" height="1080" preserveAspectRatio="none" viewBox="0 0 1920 1080"><g mask="url(&quot;#SvgjsMask1168&quot;)" fill="none"><path d="M49.93 -16.62L107.96 16.88L107.96 83.88L49.93 117.38L-8.1 83.88L-8.1 16.88zM107.96 83.88L165.98 117.38L165.98 184.38L107.96 217.88L49.93 184.38L49.93 117.38zM107.96 686.88L165.98 720.38L165.98 787.38L107.96 820.88L49.93 787.38L49.93 720.38zM107.96 1088.88L165.98 1122.38L165.98 1189.38L107.96 1222.88L49.93 1189.38L49.93 1122.38zM224.01 887.88L282.03 921.38L282.03 988.38L224.01 1021.88L165.98 988.38L165.98 921.38zM224.01 1088.88L282.03 1122.38L282.03 1189.38L224.01 1222.88L165.98 1189.38L165.98 1122.38zM282.03 -16.62L340.06 16.88L340.06 83.88L282.03 117.38L224.01 83.88L224.01 16.88zM340.06 284.88L398.08 318.38L398.08 385.38L340.06 418.88L282.03 385.38L282.03 318.38zM282.03 385.38L340.06 418.88L340.06 485.88L282.03 519.38L224.01 485.88L224.01 418.88zM282.03 586.38L340.06 619.88L340.06 686.88L282.03 720.38L224.01 686.88L224.01 619.88zM282.03 787.38L340.06 820.88L340.06 887.88L282.03 921.38L224.01 887.88L224.01 820.88zM282.03 988.38L340.06 1021.88L340.06 1088.88L282.03 1122.38L224.01 1088.88L224.01 1021.88zM456.11 284.88L514.13 318.38L514.13 385.38L456.11 418.88L398.08 385.38L398.08 318.38zM398.08 385.38L456.11 418.88L456.11 485.88L398.08 519.38L340.06 485.88L340.06 418.88zM456.11 485.88L514.13 519.38L514.13 586.38L456.11 619.88L398.08 586.38L398.08 519.38zM398.08 787.38L456.11 820.88L456.11 887.88L398.08 921.38L340.06 887.88L340.06 820.88zM456.11 1088.88L514.13 1122.38L514.13 1189.38L456.11 1222.88L398.08 1189.38L398.08 1122.38zM514.13 184.38L572.16 217.88L572.16 284.88L514.13 318.38L456.11 284.88L456.11 217.88zM688.21 83.88L746.23 117.38L746.23 184.38L688.21 217.88L630.18 184.38L630.18 117.38zM630.18 184.38L688.21 217.88L688.21 284.88L630.18 318.38L572.16 284.88L572.16 217.88zM688.21 284.88L746.23 318.38L746.23 385.38L688.21 418.88L630.18 385.38L630.18 318.38zM688.21 485.88L746.23 519.38L746.23 586.38L688.21 619.88L630.18 586.38L630.18 519.38zM630.18 586.38L688.21 619.88L688.21 686.88L630.18 720.38L572.16 686.88L572.16 619.88zM630.18 787.38L688.21 820.88L688.21 887.88L630.18 921.38L572.16 887.88L572.16 820.88zM688.21 887.88L746.23 921.38L746.23 988.38L688.21 1021.88L630.18 988.38L630.18 921.38zM688.21 1088.88L746.23 1122.38L746.23 1189.38L688.21 1222.88L630.18 1189.38L630.18 1122.38zM746.23 184.38L804.26 217.88L804.26 284.88L746.23 318.38L688.21 284.88L688.21 217.88zM804.26 284.88L862.28 318.38L862.28 385.38L804.26 418.88L746.23 385.38L746.23 318.38zM804.26 686.88L862.28 720.38L862.28 787.38L804.26 820.88L746.23 787.38L746.23 720.38zM804.26 887.88L862.28 921.38L862.28 988.38L804.26 1021.88L746.23 988.38L746.23 921.38zM920.31 485.88L978.34 519.38L978.34 586.38L920.31 619.88L862.28 586.38L862.28 519.38zM862.28 787.38L920.31 820.88L920.31 887.88L862.28 921.38L804.26 887.88L804.26 820.88zM1036.36 83.88L1094.39 117.38L1094.39 184.38L1036.36 217.88L978.34 184.38L978.34 117.38zM978.34 184.38L1036.36 217.88L1036.36 284.88L978.34 318.38L920.31 284.88L920.31 217.88zM1036.36 485.88L1094.39 519.38L1094.39 586.38L1036.36 619.88L978.34 586.38L978.34 519.38zM978.34 787.38L1036.36 820.88L1036.36 887.88L978.34 921.38L920.31 887.88L920.31 820.88zM1036.36 1088.88L1094.39 1122.38L1094.39 1189.38L1036.36 1222.88L978.34 1189.38L978.34 1122.38zM1152.41 83.88L1210.44 117.38L1210.44 184.38L1152.41 217.88L1094.39 184.38L1094.39 117.38zM1094.39 184.38L1152.41 217.88L1152.41 284.88L1094.39 318.38L1036.36 284.88L1036.36 217.88zM1210.44 -16.62L1268.46 16.88L1268.46 83.88L1210.44 117.38L1152.41 83.88L1152.41 16.88zM1210.44 184.38L1268.46 217.88L1268.46 284.88L1210.44 318.38L1152.41 284.88L1152.41 217.88zM1210.44 385.38L1268.46 418.88L1268.46 485.88L1210.44 519.38L1152.41 485.88L1152.41 418.88zM1268.46 485.88L1326.49 519.38L1326.49 586.38L1268.46 619.88L1210.44 586.38L1210.44 519.38zM1268.46 686.88L1326.49 720.38L1326.49 787.38L1268.46 820.88L1210.44 787.38L1210.44 720.38zM1210.44 787.38L1268.46 820.88L1268.46 887.88L1210.44 921.38L1152.41 887.88L1152.41 820.88zM1268.46 887.88L1326.49 921.38L1326.49 988.38L1268.46 1021.88L1210.44 988.38L1210.44 921.38zM1384.51 284.88L1442.54 318.38L1442.54 385.38L1384.51 418.88L1326.49 385.38L1326.49 318.38zM1326.49 586.38L1384.51 619.88L1384.51 686.88L1326.49 720.38L1268.46 686.88L1268.46 619.88zM1384.51 887.88L1442.54 921.38L1442.54 988.38L1384.51 1021.88L1326.49 988.38L1326.49 921.38zM1326.49 988.38L1384.51 1021.88L1384.51 1088.88L1326.49 1122.38L1268.46 1088.88L1268.46 1021.88zM1384.51 1088.88L1442.54 1122.38L1442.54 1189.38L1384.51 1222.88L1326.49 1189.38L1326.49 1122.38zM1442.54 385.38L1500.56 418.88L1500.56 485.88L1442.54 519.38L1384.51 485.88L1384.51 418.88zM1500.56 686.88L1558.59 720.38L1558.59 787.38L1500.56 820.88L1442.54 787.38L1442.54 720.38zM1558.59 184.38L1616.61 217.88L1616.61 284.88L1558.59 318.38L1500.56 284.88L1500.56 217.88zM1616.61 686.88L1674.64 720.38L1674.64 787.38L1616.61 820.88L1558.59 787.38L1558.59 720.38zM1732.67 284.88L1790.69 318.38L1790.69 385.38L1732.67 418.88L1674.64 385.38L1674.64 318.38zM1732.67 485.88L1790.69 519.38L1790.69 586.38L1732.67 619.88L1674.64 586.38L1674.64 519.38zM1732.67 1088.88L1790.69 1122.38L1790.69 1189.38L1732.67 1222.88L1674.64 1189.38L1674.64 1122.38zM1790.69 -16.62L1848.72 16.88L1848.72 83.88L1790.69 117.38L1732.67 83.88L1732.67 16.88zM1848.72 83.88L1906.74 117.38L1906.74 184.38L1848.72 217.88L1790.69 184.38L1790.69 117.38zM1790.69 787.38L1848.72 820.88L1848.72 887.88L1790.69 921.38L1732.67 887.88L1732.67 820.88zM1848.72 1088.88L1906.74 1122.38L1906.74 1189.38L1848.72 1222.88L1790.69 1189.38L1790.69 1122.38zM1964.77 284.88L2022.79 318.38L2022.79 385.38L1964.77 418.88L1906.74 385.38L1906.74 318.38zM1906.74 385.38L1964.77 418.88L1964.77 485.88L1906.74 519.38L1848.72 485.88L1848.72 418.88zM1964.77 485.88L2022.79 519.38L2022.79 586.38L1964.77 619.88L1906.74 586.38L1906.74 519.38z" stroke="rgba(141, 138, 138, 1)" stroke-width="2"></path><path d="M43.23 -16.62 a6.7 6.7 0 1 0 13.4 0 a6.7 6.7 0 1 0 -13.4 0zM101.26 16.88 a6.7 6.7 0 1 0 13.4 0 a6.7 6.7 0 1 0 -13.4 0zM101.26 83.88 a6.7 6.7 0 1 0 13.4 0 a6.7 6.7 0 1 0 -13.4 0zM43.23 117.38 a6.7 6.7 0 1 0 13.4 0 a6.7 6.7 0 1 0 -13.4 0zM-14.8 83.88 a6.7 6.7 0 1 0 13.4 0 a6.7 6.7 0 1 0 -13.4 0zM-14.8 16.88 a6.7 6.7 0 1 0 13.4 0 a6.7 6.7 0 1 0 -13.4 0zM159.28 117.38 a6.7 6.7 0 1 0 13.4 0 a6.7 6.7 0 1 0 -13.4 0zM159.28 184.38 a6.7 6.7 0 1 0 13.4 0 a6.7 6.7 0 1 0 -13.4 0zM101.26 217.88 a6.7 6.7 0 1 0 13.4 0 a6.7 6.7 0 1 0 -13.4 0zM43.23 184.38 a6.7 6.7 0 1 0 13.4 0 a6.7 6.7 0 1 0 -13.4 0zM101.26 686.88 a6.7 6.7 0 1 0 13.4 0 a6.7 6.7 0 1 0 -13.4 0zM159.28 720.38 a6.7 6.7 0 1 0 13.4 0 a6.7 6.7 0 1 0 -13.4 0zM159.28 787.38 a6.7 6.7 0 1 0 13.4 0 a6.7 6.7 0 1 0 -13.4 0zM101.26 820.88 a6.7 6.7 0 1 0 13.4 0 a6.7 6.7 0 1 0 -13.4 0zM43.23 787.38 a6.7 6.7 0 1 0 13.4 0 a6.7 6.7 0 1 0 -13.4 0zM43.23 720.38 a6.7 6.7 0 1 0 13.4 0 a6.7 6.7 0 1 0 -13.4 0zM101.26 1088.88 a6.7 6.7 0 1 0 13.4 0 a6.7 6.7 0 1 0 -13.4 0zM159.28 1122.38 a6.7 6.7 0 1 0 13.4 0 a6.7 6.7 0 1 0 -13.4 0zM159.28 1189.38 a6.7 6.7 0 1 0 13.4 0 a6.7 6.7 0 1 0 -13.4 0zM101.26 1222.88 a6.7 6.7 0 1 0 13.4 0 a6.7 6.7 0 1 0 -13.4 0zM43.23 1189.38 a6.7 6.7 0 1 0 13.4 0 a6.7 6.7 0 1 0 -13.4 0zM43.23 1122.38 a6.7 6.7 0 1 0 13.4 0 a6.7 6.7 0 1 0 -13.4 0zM217.31 887.88 a6.7 6.7 0 1 0 13.4 0 a6.7 6.7 0 1 0 -13.4 0zM275.33 921.38 a6.7 6.7 0 1 0 13.4 0 a6.7 6.7 0 1 0 -13.4 0zM275.33 988.38 a6.7 6.7 0 1 0 13.4 0 a6.7 6.7 0 1 0 -13.4 0zM217.31 1021.88 a6.7 6.7 0 1 0 13.4 0 a6.7 6.7 0 1 0 -13.4 0zM159.28 988.38 a6.7 6.7 0 1 0 13.4 0 a6.7 6.7 0 1 0 -13.4 0zM159.28 921.38 a6.7 6.7 0 1 0 13.4 0 a6.7 6.7 0 1 0 -13.4 0zM217.31 1088.88 a6.7 6.7 0 1 0 13.4 0 a6.7 6.7 0 1 0 -13.4 0zM275.33 1122.38 a6.7 6.7 0 1 0 13.4 0 a6.7 6.7 0 1 0 -13.4 0zM275.33 1189.38 a6.7 6.7 0 1 0 13.4 0 a6.7 6.7 0 1 0 -13.4 0zM217.31 1222.88 a6.7 6.7 0 1 0 13.4 0 a6.7 6.7 0 1 0 -13.4 0zM275.33 -16.62 a6.7 6.7 0 1 0 13.4 0 a6.7 6.7 0 1 0 -13.4 0zM333.36 16.88 a6.7 6.7 0 1 0 13.4 0 a6.7 6.7 0 1 0 -13.4 0zM333.36 83.88 a6.7 6.7 0 1 0 13.4 0 a6.7 6.7 0 1 0 -13.4 0zM275.33 117.38 a6.7 6.7 0 1 0 13.4 0 a6.7 6.7 0 1 0 -13.4 0zM217.31 83.88 a6.7 6.7 0 1 0 13.4 0 a6.7 6.7 0 1 0 -13.4 0zM217.31 16.88 a6.7 6.7 0 1 0 13.4 0 a6.7 6.7 0 1 0 -13.4 0zM333.36 284.88 a6.7 6.7 0 1 0 13.4 0 a6.7 6.7 0 1 0 -13.4 0zM391.38 318.38 a6.7 6.7 0 1 0 13.4 0 a6.7 6.7 0 1 0 -13.4 0zM391.38 385.38 a6.7 6.7 0 1 0 13.4 0 a6.7 6.7 0 1 0 -13.4 0zM333.36 418.88 a6.7 6.7 0 1 0 13.4 0 a6.7 6.7 0 1 0 -13.4 0zM275.33 385.38 a6.7 6.7 0 1 0 13.4 0 a6.7 6.7 0 1 0 -13.4 0zM275.33 318.38 a6.7 6.7 0 1 0 13.4 0 a6.7 6.7 0 1 0 -13.4 0zM333.36 485.88 a6.7 6.7 0 1 0 13.4 0 a6.7 6.7 0 1 0 -13.4 0zM275.33 519.38 a6.7 6.7 0 1 0 13.4 0 a6.7 6.7 0 1 0 -13.4 0zM217.31 485.88 a6.7 6.7 0 1 0 13.4 0 a6.7 6.7 0 1 0 -13.4 0zM217.31 418.88 a6.7 6.7 0 1 0 13.4 0 a6.7 6.7 0 1 0 -13.4 0zM275.33 586.38 a6.7 6.7 0 1 0 13.4 0 a6.7 6.7 0 1 0 -13.4 0zM333.36 619.88 a6.7 6.7 0 1 0 13.4 0 a6.7 6.7 0 1 0 -13.4 0zM333.36 686.88 a6.7 6.7 0 1 0 13.4 0 a6.7 6.7 0 1 0 -13.4 0zM275.33 720.38 a6.7 6.7 0 1 0 13.4 0 a6.7 6.7 0 1 0 -13.4 0zM217.31 686.88 a6.7 6.7 0 1 0 13.4 0 a6.7 6.7 0 1 0 -13.4 0zM217.31 619.88 a6.7 6.7 0 1 0 13.4 0 a6.7 6.7 0 1 0 -13.4 0zM275.33 787.38 a6.7 6.7 0 1 0 13.4 0 a6.7 6.7 0 1 0 -13.4 0zM333.36 820.88 a6.7 6.7 0 1 0 13.4 0 a6.7 6.7 0 1 0 -13.4 0zM333.36 887.88 a6.7 6.7 0 1 0 13.4 0 a6.7 6.7 0 1 0 -13.4 0zM217.31 820.88 a6.7 6.7 0 1 0 13.4 0 a6.7 6.7 0 1 0 -13.4 0zM333.36 1021.88 a6.7 6.7 0 1 0 13.4 0 a6.7 6.7 0 1 0 -13.4 0zM333.36 1088.88 a6.7 6.7 0 1 0 13.4 0 a6.7 6.7 0 1 0 -13.4 0zM449.41 284.88 a6.7 6.7 0 1 0 13.4 0 a6.7 6.7 0 1 0 -13.4 0zM507.43 318.38 a6.7 6.7 0 1 0 13.4 0 a6.7 6.7 0 1 0 -13.4 0zM507.43 385.38 a6.7 6.7 0 1 0 13.4 0 a6.7 6.7 0 1 0 -13.4 0zM449.41 418.88 a6.7 6.7 0 1 0 13.4 0 a6.7 6.7 0 1 0 -13.4 0zM449.41 485.88 a6.7 6.7 0 1 0 13.4 0 a6.7 6.7 0 1 0 -13.4 0zM391.38 519.38 a6.7 6.7 0 1 0 13.4 0 a6.7 6.7 0 1 0 -13.4 0zM507.43 519.38 a6.7 6.7 0 1 0 13.4 0 a6.7 6.7 0 1 0 -13.4 0zM507.43 586.38 a6.7 6.7 0 1 0 13.4 0 a6.7 6.7 0 1 0 -13.4 0zM449.41 619.88 a6.7 6.7 0 1 0 13.4 0 a6.7 6.7 0 1 0 -13.4 0zM391.38 586.38 a6.7 6.7 0 1 0 13.4 0 a6.7 6.7 0 1 0 -13.4 0zM391.38 787.38 a6.7 6.7 0 1 0 13.4 0 a6.7 6.7 0 1 0 -13.4 0zM449.41 820.88 a6.7 6.7 0 1 0 13.4 0 a6.7 6.7 0 1 0 -13.4 0zM449.41 887.88 a6.7 6.7 0 1 0 13.4 0 a6.7 6.7 0 1 0 -13.4 0zM391.38 921.38 a6.7 6.7 0 1 0 13.4 0 a6.7 6.7 0 1 0 -13.4 0zM449.41 1088.88 a6.7 6.7 0 1 0 13.4 0 a6.7 6.7 0 1 0 -13.4 0zM507.43 1122.38 a6.7 6.7 0 1 0 13.4 0 a6.7 6.7 0 1 0 -13.4 0zM507.43 1189.38 a6.7 6.7 0 1 0 13.4 0 a6.7 6.7 0 1 0 -13.4 0zM449.41 1222.88 a6.7 6.7 0 1 0 13.4 0 a6.7 6.7 0 1 0 -13.4 0zM391.38 1189.38 a6.7 6.7 0 1 0 13.4 0 a6.7 6.7 0 1 0 -13.4 0zM391.38 1122.38 a6.7 6.7 0 1 0 13.4 0 a6.7 6.7 0 1 0 -13.4 0zM507.43 184.38 a6.7 6.7 0 1 0 13.4 0 a6.7 6.7 0 1 0 -13.4 0zM565.46 217.88 a6.7 6.7 0 1 0 13.4 0 a6.7 6.7 0 1 0 -13.4 0zM565.46 284.88 a6.7 6.7 0 1 0 13.4 0 a6.7 6.7 0 1 0 -13.4 0zM449.41 217.88 a6.7 6.7 0 1 0 13.4 0 a6.7 6.7 0 1 0 -13.4 0zM681.51 83.88 a6.7 6.7 0 1 0 13.4 0 a6.7 6.7 0 1 0 -13.4 0zM739.53 117.38 a6.7 6.7 0 1 0 13.4 0 a6.7 6.7 0 1 0 -13.4 0zM739.53 184.38 a6.7 6.7 0 1 0 13.4 0 a6.7 6.7 0 1 0 -13.4 0zM681.51 217.88 a6.7 6.7 0 1 0 13.4 0 a6.7 6.7 0 1 0 -13.4 0zM623.48 184.38 a6.7 6.7 0 1 0 13.4 0 a6.7 6.7 0 1 0 -13.4 0zM623.48 117.38 a6.7 6.7 0 1 0 13.4 0 a6.7 6.7 0 1 0 -13.4 0zM681.51 284.88 a6.7 6.7 0 1 0 13.4 0 a6.7 6.7 0 1 0 -13.4 0zM623.48 318.38 a6.7 6.7 0 1 0 13.4 0 a6.7 6.7 0 1 0 -13.4 0zM739.53 318.38 a6.7 6.7 0 1 0 13.4 0 a6.7 6.7 0 1 0 -13.4 0zM739.53 385.38 a6.7 6.7 0 1 0 13.4 0 a6.7 6.7 0 1 0 -13.4 0zM681.51 418.88 a6.7 6.7 0 1 0 13.4 0 a6.7 6.7 0 1 0 -13.4 0zM623.48 385.38 a6.7 6.7 0 1 0 13.4 0 a6.7 6.7 0 1 0 -13.4 0zM681.51 485.88 a6.7 6.7 0 1 0 13.4 0 a6.7 6.7 0 1 0 -13.4 0zM739.53 519.38 a6.7 6.7 0 1 0 13.4 0 a6.7 6.7 0 1 0 -13.4 0zM739.53 586.38 a6.7 6.7 0 1 0 13.4 0 a6.7 6.7 0 1 0 -13.4 0zM681.51 619.88 a6.7 6.7 0 1 0 13.4 0 a6.7 6.7 0 1 0 -13.4 0zM623.48 586.38 a6.7 6.7 0 1 0 13.4 0 a6.7 6.7 0 1 0 -13.4 0zM623.48 519.38 a6.7 6.7 0 1 0 13.4 0 a6.7 6.7 0 1 0 -13.4 0zM681.51 686.88 a6.7 6.7 0 1 0 13.4 0 a6.7 6.7 0 1 0 -13.4 0zM623.48 720.38 a6.7 6.7 0 1 0 13.4 0 a6.7 6.7 0 1 0 -13.4 0zM565.46 686.88 a6.7 6.7 0 1 0 13.4 0 a6.7 6.7 0 1 0 -13.4 0zM565.46 619.88 a6.7 6.7 0 1 0 13.4 0 a6.7 6.7 0 1 0 -13.4 0zM623.48 787.38 a6.7 6.7 0 1 0 13.4 0 a6.7 6.7 0 1 0 -13.4 0zM681.51 820.88 a6.7 6.7 0 1 0 13.4 0 a6.7 6.7 0 1 0 -13.4 0zM681.51 887.88 a6.7 6.7 0 1 0 13.4 0 a6.7 6.7 0 1 0 -13.4 0zM623.48 921.38 a6.7 6.7 0 1 0 13.4 0 a6.7 6.7 0 1 0 -13.4 0zM565.46 887.88 a6.7 6.7 0 1 0 13.4 0 a6.7 6.7 0 1 0 -13.4 0zM565.46 820.88 a6.7 6.7 0 1 0 13.4 0 a6.7 6.7 0 1 0 -13.4 0zM739.53 921.38 a6.7 6.7 0 1 0 13.4 0 a6.7 6.7 0 1 0 -13.4 0zM739.53 988.38 a6.7 6.7 0 1 0 13.4 0 a6.7 6.7 0 1 0 -13.4 0zM681.51 1021.88 a6.7 6.7 0 1 0 13.4 0 a6.7 6.7 0 1 0 -13.4 0zM623.48 988.38 a6.7 6.7 0 1 0 13.4 0 a6.7 6.7 0 1 0 -13.4 0zM681.51 1088.88 a6.7 6.7 0 1 0 13.4 0 a6.7 6.7 0 1 0 -13.4 0zM739.53 1122.38 a6.7 6.7 0 1 0 13.4 0 a6.7 6.7 0 1 0 -13.4 0zM739.53 1189.38 a6.7 6.7 0 1 0 13.4 0 a6.7 6.7 0 1 0 -13.4 0zM681.51 1222.88 a6.7 6.7 0 1 0 13.4 0 a6.7 6.7 0 1 0 -13.4 0zM623.48 1189.38 a6.7 6.7 0 1 0 13.4 0 a6.7 6.7 0 1 0 -13.4 0zM623.48 1122.38 a6.7 6.7 0 1 0 13.4 0 a6.7 6.7 0 1 0 -13.4 0zM797.56 217.88 a6.7 6.7 0 1 0 13.4 0 a6.7 6.7 0 1 0 -13.4 0zM797.56 284.88 a6.7 6.7 0 1 0 13.4 0 a6.7 6.7 0 1 0 -13.4 0zM855.58 318.38 a6.7 6.7 0 1 0 13.4 0 a6.7 6.7 0 1 0 -13.4 0zM855.58 385.38 a6.7 6.7 0 1 0 13.4 0 a6.7 6.7 0 1 0 -13.4 0zM797.56 418.88 a6.7 6.7 0 1 0 13.4 0 a6.7 6.7 0 1 0 -13.4 0zM797.56 686.88 a6.7 6.7 0 1 0 13.4 0 a6.7 6.7 0 1 0 -13.4 0zM855.58 720.38 a6.7 6.7 0 1 0 13.4 0 a6.7 6.7 0 1 0 -13.4 0zM855.58 787.38 a6.7 6.7 0 1 0 13.4 0 a6.7 6.7 0 1 0 -13.4 0zM797.56 820.88 a6.7 6.7 0 1 0 13.4 0 a6.7 6.7 0 1 0 -13.4 0zM739.53 787.38 a6.7 6.7 0 1 0 13.4 0 a6.7 6.7 0 1 0 -13.4 0zM739.53 720.38 a6.7 6.7 0 1 0 13.4 0 a6.7 6.7 0 1 0 -13.4 0zM797.56 887.88 a6.7 6.7 0 1 0 13.4 0 a6.7 6.7 0 1 0 -13.4 0zM855.58 921.38 a6.7 6.7 0 1 0 13.4 0 a6.7 6.7 0 1 0 -13.4 0zM855.58 988.38 a6.7 6.7 0 1 0 13.4 0 a6.7 6.7 0 1 0 -13.4 0zM797.56 1021.88 a6.7 6.7 0 1 0 13.4 0 a6.7 6.7 0 1 0 -13.4 0zM913.61 485.88 a6.7 6.7 0 1 0 13.4 0 a6.7 6.7 0 1 0 -13.4 0zM971.64 519.38 a6.7 6.7 0 1 0 13.4 0 a6.7 6.7 0 1 0 -13.4 0zM971.64 586.38 a6.7 6.7 0 1 0 13.4 0 a6.7 6.7 0 1 0 -13.4 0zM913.61 619.88 a6.7 6.7 0 1 0 13.4 0 a6.7 6.7 0 1 0 -13.4 0zM855.58 586.38 a6.7 6.7 0 1 0 13.4 0 a6.7 6.7 0 1 0 -13.4 0zM855.58 519.38 a6.7 6.7 0 1 0 13.4 0 a6.7 6.7 0 1 0 -13.4 0zM913.61 820.88 a6.7 6.7 0 1 0 13.4 0 a6.7 6.7 0 1 0 -13.4 0zM913.61 887.88 a6.7 6.7 0 1 0 13.4 0 a6.7 6.7 0 1 0 -13.4 0zM1029.66 83.88 a6.7 6.7 0 1 0 13.4 0 a6.7 6.7 0 1 0 -13.4 0zM1087.69 117.38 a6.7 6.7 0 1 0 13.4 0 a6.7 6.7 0 1 0 -13.4 0zM1087.69 184.38 a6.7 6.7 0 1 0 13.4 0 a6.7 6.7 0 1 0 -13.4 0zM1029.66 217.88 a6.7 6.7 0 1 0 13.4 0 a6.7 6.7 0 1 0 -13.4 0zM971.64 184.38 a6.7 6.7 0 1 0 13.4 0 a6.7 6.7 0 1 0 -13.4 0zM971.64 117.38 a6.7 6.7 0 1 0 13.4 0 a6.7 6.7 0 1 0 -13.4 0zM1029.66 284.88 a6.7 6.7 0 1 0 13.4 0 a6.7 6.7 0 1 0 -13.4 0zM971.64 318.38 a6.7 6.7 0 1 0 13.4 0 a6.7 6.7 0 1 0 -13.4 0zM913.61 284.88 a6.7 6.7 0 1 0 13.4 0 a6.7 6.7 0 1 0 -13.4 0zM913.61 217.88 a6.7 6.7 0 1 0 13.4 0 a6.7 6.7 0 1 0 -13.4 0zM1029.66 485.88 a6.7 6.7 0 1 0 13.4 0 a6.7 6.7 0 1 0 -13.4 0zM1087.69 519.38 a6.7 6.7 0 1 0 13.4 0 a6.7 6.7 0 1 0 -13.4 0zM1087.69 586.38 a6.7 6.7 0 1 0 13.4 0 a6.7 6.7 0 1 0 -13.4 0zM1029.66 619.88 a6.7 6.7 0 1 0 13.4 0 a6.7 6.7 0 1 0 -13.4 0zM971.64 787.38 a6.7 6.7 0 1 0 13.4 0 a6.7 6.7 0 1 0 -13.4 0zM1029.66 820.88 a6.7 6.7 0 1 0 13.4 0 a6.7 6.7 0 1 0 -13.4 0zM1029.66 887.88 a6.7 6.7 0 1 0 13.4 0 a6.7 6.7 0 1 0 -13.4 0zM971.64 921.38 a6.7 6.7 0 1 0 13.4 0 a6.7 6.7 0 1 0 -13.4 0zM1029.66 1088.88 a6.7 6.7 0 1 0 13.4 0 a6.7 6.7 0 1 0 -13.4 0zM1087.69 1122.38 a6.7 6.7 0 1 0 13.4 0 a6.7 6.7 0 1 0 -13.4 0zM1087.69 1189.38 a6.7 6.7 0 1 0 13.4 0 a6.7 6.7 0 1 0 -13.4 0zM1029.66 1222.88 a6.7 6.7 0 1 0 13.4 0 a6.7 6.7 0 1 0 -13.4 0zM971.64 1189.38 a6.7 6.7 0 1 0 13.4 0 a6.7 6.7 0 1 0 -13.4 0zM971.64 1122.38 a6.7 6.7 0 1 0 13.4 0 a6.7 6.7 0 1 0 -13.4 0zM1145.71 83.88 a6.7 6.7 0 1 0 13.4 0 a6.7 6.7 0 1 0 -13.4 0zM1203.74 117.38 a6.7 6.7 0 1 0 13.4 0 a6.7 6.7 0 1 0 -13.4 0zM1203.74 184.38 a6.7 6.7 0 1 0 13.4 0 a6.7 6.7 0 1 0 -13.4 0zM1145.71 217.88 a6.7 6.7 0 1 0 13.4 0 a6.7 6.7 0 1 0 -13.4 0zM1145.71 284.88 a6.7 6.7 0 1 0 13.4 0 a6.7 6.7 0 1 0 -13.4 0zM1087.69 318.38 a6.7 6.7 0 1 0 13.4 0 a6.7 6.7 0 1 0 -13.4 0zM1203.74 -16.62 a6.7 6.7 0 1 0 13.4 0 a6.7 6.7 0 1 0 -13.4 0zM1261.76 16.88 a6.7 6.7 0 1 0 13.4 0 a6.7 6.7 0 1 0 -13.4 0zM1261.76 83.88 a6.7 6.7 0 1 0 13.4 0 a6.7 6.7 0 1 0 -13.4 0zM1145.71 16.88 a6.7 6.7 0 1 0 13.4 0 a6.7 6.7 0 1 0 -13.4 0zM1261.76 217.88 a6.7 6.7 0 1 0 13.4 0 a6.7 6.7 0 1 0 -13.4 0zM1261.76 284.88 a6.7 6.7 0 1 0 13.4 0 a6.7 6.7 0 1 0 -13.4 0zM1203.74 318.38 a6.7 6.7 0 1 0 13.4 0 a6.7 6.7 0 1 0 -13.4 0zM1203.74 385.38 a6.7 6.7 0 1 0 13.4 0 a6.7 6.7 0 1 0 -13.4 0zM1261.76 418.88 a6.7 6.7 0 1 0 13.4 0 a6.7 6.7 0 1 0 -13.4 0zM1261.76 485.88 a6.7 6.7 0 1 0 13.4 0 a6.7 6.7 0 1 0 -13.4 0zM1203.74 519.38 a6.7 6.7 0 1 0 13.4 0 a6.7 6.7 0 1 0 -13.4 0zM1145.71 485.88 a6.7 6.7 0 1 0 13.4 0 a6.7 6.7 0 1 0 -13.4 0zM1145.71 418.88 a6.7 6.7 0 1 0 13.4 0 a6.7 6.7 0 1 0 -13.4 0zM1319.79 519.38 a6.7 6.7 0 1 0 13.4 0 a6.7 6.7 0 1 0 -13.4 0zM1319.79 586.38 a6.7 6.7 0 1 0 13.4 0 a6.7 6.7 0 1 0 -13.4 0zM1261.76 619.88 a6.7 6.7 0 1 0 13.4 0 a6.7 6.7 0 1 0 -13.4 0zM1203.74 586.38 a6.7 6.7 0 1 0 13.4 0 a6.7 6.7 0 1 0 -13.4 0zM1261.76 686.88 a6.7 6.7 0 1 0 13.4 0 a6.7 6.7 0 1 0 -13.4 0zM1319.79 720.38 a6.7 6.7 0 1 0 13.4 0 a6.7 6.7 0 1 0 -13.4 0zM1319.79 787.38 a6.7 6.7 0 1 0 13.4 0 a6.7 6.7 0 1 0 -13.4 0zM1261.76 820.88 a6.7 6.7 0 1 0 13.4 0 a6.7 6.7 0 1 0 -13.4 0zM1203.74 787.38 a6.7 6.7 0 1 0 13.4 0 a6.7 6.7 0 1 0 -13.4 0zM1203.74 720.38 a6.7 6.7 0 1 0 13.4 0 a6.7 6.7 0 1 0 -13.4 0zM1261.76 887.88 a6.7 6.7 0 1 0 13.4 0 a6.7 6.7 0 1 0 -13.4 0zM1203.74 921.38 a6.7 6.7 0 1 0 13.4 0 a6.7 6.7 0 1 0 -13.4 0zM1145.71 887.88 a6.7 6.7 0 1 0 13.4 0 a6.7 6.7 0 1 0 -13.4 0zM1145.71 820.88 a6.7 6.7 0 1 0 13.4 0 a6.7 6.7 0 1 0 -13.4 0zM1319.79 921.38 a6.7 6.7 0 1 0 13.4 0 a6.7 6.7 0 1 0 -13.4 0zM1319.79 988.38 a6.7 6.7 0 1 0 13.4 0 a6.7 6.7 0 1 0 -13.4 0zM1261.76 1021.88 a6.7 6.7 0 1 0 13.4 0 a6.7 6.7 0 1 0 -13.4 0zM1203.74 988.38 a6.7 6.7 0 1 0 13.4 0 a6.7 6.7 0 1 0 -13.4 0zM1377.81 284.88 a6.7 6.7 0 1 0 13.4 0 a6.7 6.7 0 1 0 -13.4 0zM1435.84 318.38 a6.7 6.7 0 1 0 13.4 0 a6.7 6.7 0 1 0 -13.4 0zM1435.84 385.38 a6.7 6.7 0 1 0 13.4 0 a6.7 6.7 0 1 0 -13.4 0zM1377.81 418.88 a6.7 6.7 0 1 0 13.4 0 a6.7 6.7 0 1 0 -13.4 0zM1319.79 385.38 a6.7 6.7 0 1 0 13.4 0 a6.7 6.7 0 1 0 -13.4 0zM1319.79 318.38 a6.7 6.7 0 1 0 13.4 0 a6.7 6.7 0 1 0 -13.4 0zM1377.81 619.88 a6.7 6.7 0 1 0 13.4 0 a6.7 6.7 0 1 0 -13.4 0zM1377.81 686.88 a6.7 6.7 0 1 0 13.4 0 a6.7 6.7 0 1 0 -13.4 0zM1377.81 887.88 a6.7 6.7 0 1 0 13.4 0 a6.7 6.7 0 1 0 -13.4 0zM1435.84 921.38 a6.7 6.7 0 1 0 13.4 0 a6.7 6.7 0 1 0 -13.4 0zM1435.84 988.38 a6.7 6.7 0 1 0 13.4 0 a6.7 6.7 0 1 0 -13.4 0zM1377.81 1021.88 a6.7 6.7 0 1 0 13.4 0 a6.7 6.7 0 1 0 -13.4 0zM1377.81 1088.88 a6.7 6.7 0 1 0 13.4 0 a6.7 6.7 0 1 0 -13.4 0zM1319.79 1122.38 a6.7 6.7 0 1 0 13.4 0 a6.7 6.7 0 1 0 -13.4 0zM1261.76 1088.88 a6.7 6.7 0 1 0 13.4 0 a6.7 6.7 0 1 0 -13.4 0zM1435.84 1122.38 a6.7 6.7 0 1 0 13.4 0 a6.7 6.7 0 1 0 -13.4 0zM1435.84 1189.38 a6.7 6.7 0 1 0 13.4 0 a6.7 6.7 0 1 0 -13.4 0zM1377.81 1222.88 a6.7 6.7 0 1 0 13.4 0 a6.7 6.7 0 1 0 -13.4 0zM1319.79 1189.38 a6.7 6.7 0 1 0 13.4 0 a6.7 6.7 0 1 0 -13.4 0zM1493.86 418.88 a6.7 6.7 0 1 0 13.4 0 a6.7 6.7 0 1 0 -13.4 0zM1493.86 485.88 a6.7 6.7 0 1 0 13.4 0 a6.7 6.7 0 1 0 -13.4 0zM1435.84 519.38 a6.7 6.7 0 1 0 13.4 0 a6.7 6.7 0 1 0 -13.4 0zM1377.81 485.88 a6.7 6.7 0 1 0 13.4 0 a6.7 6.7 0 1 0 -13.4 0zM1493.86 686.88 a6.7 6.7 0 1 0 13.4 0 a6.7 6.7 0 1 0 -13.4 0zM1551.89 720.38 a6.7 6.7 0 1 0 13.4 0 a6.7 6.7 0 1 0 -13.4 0zM1551.89 787.38 a6.7 6.7 0 1 0 13.4 0 a6.7 6.7 0 1 0 -13.4 0zM1493.86 820.88 a6.7 6.7 0 1 0 13.4 0 a6.7 6.7 0 1 0 -13.4 0zM1435.84 787.38 a6.7 6.7 0 1 0 13.4 0 a6.7 6.7 0 1 0 -13.4 0zM1435.84 720.38 a6.7 6.7 0 1 0 13.4 0 a6.7 6.7 0 1 0 -13.4 0zM1551.89 184.38 a6.7 6.7 0 1 0 13.4 0 a6.7 6.7 0 1 0 -13.4 0zM1609.91 217.88 a6.7 6.7 0 1 0 13.4 0 a6.7 6.7 0 1 0 -13.4 0zM1609.91 284.88 a6.7 6.7 0 1 0 13.4 0 a6.7 6.7 0 1 0 -13.4 0zM1551.89 318.38 a6.7 6.7 0 1 0 13.4 0 a6.7 6.7 0 1 0 -13.4 0zM1493.86 284.88 a6.7 6.7 0 1 0 13.4 0 a6.7 6.7 0 1 0 -13.4 0zM1493.86 217.88 a6.7 6.7 0 1 0 13.4 0 a6.7 6.7 0 1 0 -13.4 0zM1609.91 686.88 a6.7 6.7 0 1 0 13.4 0 a6.7 6.7 0 1 0 -13.4 0zM1667.94 720.38 a6.7 6.7 0 1 0 13.4 0 a6.7 6.7 0 1 0 -13.4 0zM1667.94 787.38 a6.7 6.7 0 1 0 13.4 0 a6.7 6.7 0 1 0 -13.4 0zM1609.91 820.88 a6.7 6.7 0 1 0 13.4 0 a6.7 6.7 0 1 0 -13.4 0zM1725.97 284.88 a6.7 6.7 0 1 0 13.4 0 a6.7 6.7 0 1 0 -13.4 0zM1783.99 318.38 a6.7 6.7 0 1 0 13.4 0 a6.7 6.7 0 1 0 -13.4 0zM1783.99 385.38 a6.7 6.7 0 1 0 13.4 0 a6.7 6.7 0 1 0 -13.4 0zM1725.97 418.88 a6.7 6.7 0 1 0 13.4 0 a6.7 6.7 0 1 0 -13.4 0zM1667.94 385.38 a6.7 6.7 0 1 0 13.4 0 a6.7 6.7 0 1 0 -13.4 0zM1667.94 318.38 a6.7 6.7 0 1 0 13.4 0 a6.7 6.7 0 1 0 -13.4 0zM1725.97 485.88 a6.7 6.7 0 1 0 13.4 0 a6.7 6.7 0 1 0 -13.4 0zM1783.99 519.38 a6.7 6.7 0 1 0 13.4 0 a6.7 6.7 0 1 0 -13.4 0zM1783.99 586.38 a6.7 6.7 0 1 0 13.4 0 a6.7 6.7 0 1 0 -13.4 0zM1725.97 619.88 a6.7 6.7 0 1 0 13.4 0 a6.7 6.7 0 1 0 -13.4 0zM1667.94 586.38 a6.7 6.7 0 1 0 13.4 0 a6.7 6.7 0 1 0 -13.4 0zM1667.94 519.38 a6.7 6.7 0 1 0 13.4 0 a6.7 6.7 0 1 0 -13.4 0zM1725.97 1088.88 a6.7 6.7 0 1 0 13.4 0 a6.7 6.7 0 1 0 -13.4 0zM1783.99 1122.38 a6.7 6.7 0 1 0 13.4 0 a6.7 6.7 0 1 0 -13.4 0zM1783.99 1189.38 a6.7 6.7 0 1 0 13.4 0 a6.7 6.7 0 1 0 -13.4 0zM1725.97 1222.88 a6.7 6.7 0 1 0 13.4 0 a6.7 6.7 0 1 0 -13.4 0zM1667.94 1189.38 a6.7 6.7 0 1 0 13.4 0 a6.7 6.7 0 1 0 -13.4 0zM1667.94 1122.38 a6.7 6.7 0 1 0 13.4 0 a6.7 6.7 0 1 0 -13.4 0zM1783.99 -16.62 a6.7 6.7 0 1 0 13.4 0 a6.7 6.7 0 1 0 -13.4 0zM1842.02 16.88 a6.7 6.7 0 1 0 13.4 0 a6.7 6.7 0 1 0 -13.4 0zM1842.02 83.88 a6.7 6.7 0 1 0 13.4 0 a6.7 6.7 0 1 0 -13.4 0zM1783.99 117.38 a6.7 6.7 0 1 0 13.4 0 a6.7 6.7 0 1 0 -13.4 0zM1725.97 83.88 a6.7 6.7 0 1 0 13.4 0 a6.7 6.7 0 1 0 -13.4 0zM1725.97 16.88 a6.7 6.7 0 1 0 13.4 0 a6.7 6.7 0 1 0 -13.4 0zM1900.04 117.38 a6.7 6.7 0 1 0 13.4 0 a6.7 6.7 0 1 0 -13.4 0zM1900.04 184.38 a6.7 6.7 0 1 0 13.4 0 a6.7 6.7 0 1 0 -13.4 0zM1842.02 217.88 a6.7 6.7 0 1 0 13.4 0 a6.7 6.7 0 1 0 -13.4 0zM1783.99 184.38 a6.7 6.7 0 1 0 13.4 0 a6.7 6.7 0 1 0 -13.4 0zM1783.99 787.38 a6.7 6.7 0 1 0 13.4 0 a6.7 6.7 0 1 0 -13.4 0zM1842.02 820.88 a6.7 6.7 0 1 0 13.4 0 a6.7 6.7 0 1 0 -13.4 0zM1842.02 887.88 a6.7 6.7 0 1 0 13.4 0 a6.7 6.7 0 1 0 -13.4 0zM1783.99 921.38 a6.7 6.7 0 1 0 13.4 0 a6.7 6.7 0 1 0 -13.4 0zM1725.97 887.88 a6.7 6.7 0 1 0 13.4 0 a6.7 6.7 0 1 0 -13.4 0zM1725.97 820.88 a6.7 6.7 0 1 0 13.4 0 a6.7 6.7 0 1 0 -13.4 0zM1842.02 1088.88 a6.7 6.7 0 1 0 13.4 0 a6.7 6.7 0 1 0 -13.4 0zM1900.04 1122.38 a6.7 6.7 0 1 0 13.4 0 a6.7 6.7 0 1 0 -13.4 0zM1900.04 1189.38 a6.7 6.7 0 1 0 13.4 0 a6.7 6.7 0 1 0 -13.4 0zM1842.02 1222.88 a6.7 6.7 0 1 0 13.4 0 a6.7 6.7 0 1 0 -13.4 0zM1958.07 284.88 a6.7 6.7 0 1 0 13.4 0 a6.7 6.7 0 1 0 -13.4 0zM2016.09 318.38 a6.7 6.7 0 1 0 13.4 0 a6.7 6.7 0 1 0 -13.4 0zM2016.09 385.38 a6.7 6.7 0 1 0 13.4 0 a6.7 6.7 0 1 0 -13.4 0zM1958.07 418.88 a6.7 6.7 0 1 0 13.4 0 a6.7 6.7 0 1 0 -13.4 0zM1900.04 385.38 a6.7 6.7 0 1 0 13.4 0 a6.7 6.7 0 1 0 -13.4 0zM1900.04 318.38 a6.7 6.7 0 1 0 13.4 0 a6.7 6.7 0 1 0 -13.4 0zM1958.07 485.88 a6.7 6.7 0 1 0 13.4 0 a6.7 6.7 0 1 0 -13.4 0zM1900.04 519.38 a6.7 6.7 0 1 0 13.4 0 a6.7 6.7 0 1 0 -13.4 0zM1842.02 485.88 a6.7 6.7 0 1 0 13.4 0 a6.7 6.7 0 1 0 -13.4 0zM1842.02 418.88 a6.7 6.7 0 1 0 13.4 0 a6.7 6.7 0 1 0 -13.4 0zM2016.09 519.38 a6.7 6.7 0 1 0 13.4 0 a6.7 6.7 0 1 0 -13.4 0zM2016.09 586.38 a6.7 6.7 0 1 0 13.4 0 a6.7 6.7 0 1 0 -13.4 0zM1958.07 619.88 a6.7 6.7 0 1 0 13.4 0 a6.7 6.7 0 1 0 -13.4 0zM1900.04 586.38 a6.7 6.7 0 1 0 13.4 0 a6.7 6.7 0 1 0 -13.4 0z" fill="rgba(141, 138, 138, 1)"></path><path d="M17.11 -12.62L81.2 24.38L81.2 98.38L17.11 135.38L-46.98 98.38L-46.98 24.38zM81.2 98.38L145.29 135.38L145.29 209.38L81.2 246.38L17.11 209.38L17.11 135.38zM17.11 209.38L81.2 246.38L81.2 320.38L17.11 357.38L-46.98 320.38L-46.98 246.38zM17.11 431.38L81.2 468.38L81.2 542.38L17.11 579.38L-46.98 542.38L-46.98 468.38zM17.11 875.38L81.2 912.38L81.2 986.38L17.11 1023.38L-46.98 986.38L-46.98 912.38zM81.2 986.38L145.29 1023.38L145.29 1097.38L81.2 1134.38L17.11 1097.38L17.11 1023.38zM17.11 1097.38L81.2 1134.38L81.2 1208.38L17.11 1245.38L-46.98 1208.38L-46.98 1134.38zM145.29 -12.62L209.37 24.38L209.37 98.38L145.29 135.38L81.2 98.38L81.2 24.38zM209.37 98.38L273.46 135.38L273.46 209.38L209.37 246.38L145.29 209.38L145.29 135.38zM209.37 542.38L273.46 579.38L273.46 653.38L209.37 690.38L145.29 653.38L145.29 579.38zM145.29 875.38L209.37 912.38L209.37 986.38L145.29 1023.38L81.2 986.38L81.2 912.38zM209.37 986.38L273.46 1023.38L273.46 1097.38L209.37 1134.38L145.29 1097.38L145.29 1023.38zM145.29 1097.38L209.37 1134.38L209.37 1208.38L145.29 1245.38L81.2 1208.38L81.2 1134.38zM465.72 764.38L529.81 801.38L529.81 875.38L465.72 912.38L401.64 875.38L401.64 801.38zM593.9 320.38L657.99 357.38L657.99 431.38L593.9 468.38L529.81 431.38L529.81 357.38zM593.9 986.38L657.99 1023.38L657.99 1097.38L593.9 1134.38L529.81 1097.38L529.81 1023.38zM657.99 209.38L722.07 246.38L722.07 320.38L657.99 357.38L593.9 320.38L593.9 246.38zM722.07 320.38L786.16 357.38L786.16 431.38L722.07 468.38L657.99 431.38L657.99 357.38zM978.43 320.38L1042.51 357.38L1042.51 431.38L978.43 468.38L914.34 431.38L914.34 357.38zM978.43 764.38L1042.51 801.38L1042.51 875.38L978.43 912.38L914.34 875.38L914.34 801.38zM1106.6 98.38L1170.69 135.38L1170.69 209.38L1106.6 246.38L1042.51 209.38L1042.51 135.38zM1106.6 320.38L1170.69 357.38L1170.69 431.38L1106.6 468.38L1042.51 431.38L1042.51 357.38zM1042.51 1097.38L1106.6 1134.38L1106.6 1208.38L1042.51 1245.38L978.43 1208.38L978.43 1134.38zM1234.78 98.38L1298.86 135.38L1298.86 209.38L1234.78 246.38L1170.69 209.38L1170.69 135.38zM1234.78 320.38L1298.86 357.38L1298.86 431.38L1234.78 468.38L1170.69 431.38L1170.69 357.38zM1170.69 653.38L1234.78 690.38L1234.78 764.38L1170.69 801.38L1106.6 764.38L1106.6 690.38zM1362.95 98.38L1427.04 135.38L1427.04 209.38L1362.95 246.38L1298.86 209.38L1298.86 135.38zM1298.86 431.38L1362.95 468.38L1362.95 542.38L1298.86 579.38L1234.78 542.38L1234.78 468.38zM1362.95 986.38L1427.04 1023.38L1427.04 1097.38L1362.95 1134.38L1298.86 1097.38L1298.86 1023.38zM1491.13 320.38L1555.21 357.38L1555.21 431.38L1491.13 468.38L1427.04 431.38L1427.04 357.38zM1555.21 -12.62L1619.3 24.38L1619.3 98.38L1555.21 135.38L1491.13 98.38L1491.13 24.38zM1555.21 875.38L1619.3 912.38L1619.3 986.38L1555.21 1023.38L1491.13 986.38L1491.13 912.38zM1619.3 986.38L1683.39 1023.38L1683.39 1097.38L1619.3 1134.38L1555.21 1097.38L1555.21 1023.38zM1555.21 1097.38L1619.3 1134.38L1619.3 1208.38L1555.21 1245.38L1491.13 1208.38L1491.13 1134.38zM1683.39 431.38L1747.48 468.38L1747.48 542.38L1683.39 579.38L1619.3 542.38L1619.3 468.38zM1683.39 653.38L1747.48 690.38L1747.48 764.38L1683.39 801.38L1619.3 764.38L1619.3 690.38zM1747.48 986.38L1811.57 1023.38L1811.57 1097.38L1747.48 1134.38L1683.39 1097.38L1683.39 1023.38zM1811.57 209.38L1875.65 246.38L1875.65 320.38L1811.57 357.38L1747.48 320.38L1747.48 246.38z" stroke="rgba(155, 153, 153, 1)" stroke-width="2"></path></g><defs><mask id="SvgjsMask1168"><rect width="1920" height="1080" fill="#ffffff"></rect></mask></defs></svg>